<svg width="23" height="23" viewBox="0 0 23 23" fill="none" xmlns="http://www.w3.org/2000/svg">
<g id="AD">
<g id="Vector">
<mask id="path-1-inside-1_402_310" fill="white">
<path d="M19.5031 13.4908H18.8147V14.1781H20.1905V12.8037H19.5031V13.4908Z"/>
</mask>
<path d="M19.5031 13.4908H18.8147V14.1781H20.1905V12.8037H19.5031V13.4908Z" fill="#667085"/>
<path d="M19.5031 13.4908V23.4908H29.5031V13.4908H19.5031ZM18.8147 13.4908V3.4908H8.8147V13.4908H18.8147ZM18.8147 14.1781H8.8147V24.1781H18.8147V14.1781ZM20.1905 14.1781V24.1781H30.1905V14.1781H20.1905ZM20.1905 12.8037H30.1905V2.80371H20.1905V12.8037ZM19.5031 12.8037V2.80371H9.50311V12.8037H19.5031ZM19.5031 3.4908H18.8147V23.4908H19.5031V3.4908ZM8.8147 13.4908V14.1781H28.8147V13.4908H8.8147ZM18.8147 24.1781H20.1905V4.17815H18.8147V24.1781ZM30.1905 14.1781V12.8037H10.1905V14.1781H30.1905ZM20.1905 2.80371H19.5031V22.8037H20.1905V2.80371ZM9.50311 12.8037V13.4908H29.5031V12.8037H9.50311Z" fill="#667085" mask="url(#path-1-inside-1_402_310)"/>
</g>
<path id="Vector_2" d="M19.5031 9.71011H20.1905V8.33594H18.8147V9.02302H19.5031V9.71011Z" fill="#667085"/>
<path id="Vector_3" d="M15.0334 5.58533V5.92927H17.7834V5.24219H15.0334V5.58533Z" fill="#667085"/>
<path id="Vector_4" d="M20.1905 4.89751V4.21042H21.2218C21.4636 4.21042 22.2531 4.26032 22.2531 4.89751H20.1905ZM22.2531 16.2412H1.62727V5.58486H2.31568V10.7416H3.00277V14.8667H10.9094V15.5541H21.566V6.96036H20.1905V5.58486H22.2531V16.2412ZM22.2531 17.9609C22.2531 18.5291 21.7897 18.9911 21.2218 18.9911H2.65883C2.09064 18.9911 1.62727 18.5291 1.62727 17.9609V16.9296H22.2531V17.9609ZM9.55887 21.7421C9.93042 21.1599 10.1568 20.4452 10.2104 19.6795H13.6713C13.7225 20.4452 13.95 21.1599 14.3226 21.7421H9.55887ZM2.31568 4.24147V4.89751H1.62727C1.62727 4.45803 2.00253 4.29747 2.31568 4.24147ZM10.9094 10.7416V14.1786H3.69012V10.7416H10.9094ZM3.00277 6.96036V2.83493H12.2839V10.0542H3.00277V6.96036ZM12.9723 7.64744H20.8776V14.8667H11.5965V10.7416H12.9723V7.64744ZM12.9723 5.58486H13.6594V6.96036H12.9723V5.58486ZM12.9723 4.21042H13.6594V4.89751H12.9723V4.21042ZM14.3464 5.58486V1.11628H19.5032V6.96036H14.3464V5.58486ZM21.2218 3.52334H20.1905V0.429199H13.6594V3.52334H12.9723V2.14784H2.31568V3.5459C1.47972 3.6555 0.940186 4.17115 0.940186 4.89751V17.9609C0.940186 18.9078 1.71193 19.6795 2.65883 19.6795H9.5196C9.45537 20.4916 9.16239 21.2217 8.69318 21.7421H7.81555V22.4292H16.0651V21.7421H15.1872C14.7193 21.2217 14.425 20.4916 14.3608 19.6795H21.2218C22.1698 19.6795 22.9402 18.9078 22.9402 17.9609V4.89751C22.9402 4.07587 22.2494 3.52334 21.2218 3.52334Z" fill="#667085"/>
<path id="Vector_5" d="M17.4406 10.0543H17.7835C18.1635 10.0543 18.4719 10.3629 18.4719 10.7416V11.4287C18.4719 11.8085 18.1635 12.1171 17.7835 12.1171H17.4406V10.0543ZM19.159 11.4287V10.7416C19.159 9.98288 18.5422 9.36719 17.7835 9.36719H16.7522V12.8042H17.7835C18.5422 12.8042 19.159 12.1872 19.159 11.4287Z" fill="#667085"/>
<path id="Vector_6" d="M15.0334 2.49177H18.8147V1.80469H15.0334V2.49177Z" fill="#667085"/>
<path id="Vector_7" d="M15.0334 4.21042V4.55462H18.8147V3.86621H15.0334V4.21042Z" fill="#667085"/>
<path id="Vector_8" d="M5.06568 8.6783H4.37727V7.99121H3.69019V9.36671H5.06568V8.6783Z" fill="#667085"/>
<path id="Vector_9" d="M8.84686 6.96041V5.24177H9.18974C9.44345 5.24177 9.66266 5.3811 9.78155 5.58492C9.84126 5.68709 9.87815 5.80386 9.87815 5.92886V6.61621C9.87815 6.74227 9.84126 6.85904 9.78155 6.96041C9.66266 7.16503 9.44345 7.30462 9.18974 7.30462H8.84686V6.96041ZM10.096 7.6475C10.208 7.54984 10.3044 7.43307 10.3795 7.30462C10.4416 7.1974 10.4891 7.0817 10.5201 6.96041C10.5485 6.85081 10.5652 6.7351 10.5652 6.61621V5.92886C10.5652 5.80997 10.5485 5.69558 10.5201 5.58492C10.4891 5.46337 10.4416 5.34793 10.3795 5.24177C10.3044 5.112 10.208 4.99656 10.096 4.89757C9.85427 4.68446 9.53766 4.55469 9.18974 4.55469H8.15845V7.99171H9.18974C9.53766 7.99171 9.85427 7.86061 10.096 7.6475Z" fill="#667085"/>
<path id="Vector_10" d="M4.37727 4.21052H5.06568V3.52344H3.69019V4.89761H4.37727V4.21052Z" fill="#667085"/>
<path id="Vector_11" d="M5.75276 5.75742C5.75276 5.69665 5.7647 5.63959 5.78487 5.58492C5.8552 5.38588 6.04468 5.24177 6.2684 5.24177C6.49239 5.24177 6.68161 5.38588 6.75194 5.58492C6.77211 5.63959 6.78405 5.69665 6.78405 5.75742V6.27306H5.75276V5.75742ZM5.06567 6.27306V7.99171H5.75276V6.96041H6.78405V7.99171H7.4714V5.75742C7.4714 5.69903 7.4653 5.64198 7.45813 5.58492C7.44035 5.46337 7.40452 5.34899 7.3533 5.24177C7.2928 5.11306 7.2092 4.99656 7.10809 4.89757C6.89127 4.68552 6.59483 4.55469 6.2684 4.55469C5.94225 4.55469 5.64554 4.68552 5.42766 4.89757C5.32761 4.99656 5.24428 5.11306 5.18244 5.24177C5.13229 5.34899 5.09646 5.46337 5.07868 5.58492C5.07045 5.64198 5.06567 5.69903 5.06567 5.75742V6.27306Z" fill="#667085"/>
<path id="Vector_12" d="M5.40849 12.1171H8.84683C9.03606 12.1171 9.18971 12.2708 9.18971 12.46C9.18971 12.6495 9.03606 12.8042 8.84683 12.8042H5.40849C5.21927 12.8042 5.06561 12.6495 5.06561 12.46C5.06561 12.2708 5.21927 12.1171 5.40849 12.1171ZM5.40849 13.4913H8.84683C9.41476 13.4913 9.87813 13.0293 9.87813 12.46C9.87813 11.8921 9.41476 11.4287 8.84683 11.4287H5.40849C4.84056 11.4287 4.3772 11.8921 4.3772 12.46C4.3772 13.0293 4.84056 13.4913 5.40849 13.4913Z" fill="#667085"/>
<path id="Vector_13" d="M10.9094 4.89761H11.5964V3.52344H10.2209V4.21052H10.9094V4.89761Z" fill="#667085"/>
<path id="Vector_14" d="M13.3152 14.1781H13.6594V13.4908H12.9723V12.8037H12.2839V14.1781H13.3152Z" fill="#667085"/>
<path id="Vector_15" d="M12.2838 17.6162H11.5964V18.3033C12.2838 18.3033 11.5964 18.3033 12.2838 18.3033V17.6162Z" fill="#667085"/>
<path id="Vector_16" d="M14.3465 10.5699C14.3465 10.2854 14.5777 10.0543 14.8622 10.0543C15.1469 10.0543 15.3778 10.2854 15.3778 10.5699V11.0856H14.3465V10.5699ZM14.3465 11.7729H15.3778V12.8042H16.0652V10.5699C16.0652 9.90672 15.5256 9.36719 14.8622 9.36719C14.199 9.36719 13.6594 9.90672 13.6594 10.5699V12.8042H14.3465V11.7729Z" fill="#667085"/>
<path id="Vector_17" d="M10.9094 7.99121V8.6783H10.2209V9.36671H11.5964V7.99121H10.9094Z" fill="#667085"/>
</g>
</svg>
