<svg width="81" height="47" viewBox="0 0 81 47" fill="none" xmlns="http://www.w3.org/2000/svg">
<g id="logoo 1 1">
<path id="Vector" d="M42.9344 20.3048C44.4004 20.5812 45.8707 20.2218 47.1913 20.6839C48.217 21.0433 50.3389 22.3507 51.1049 21.2053C51.1519 21.1362 51.2211 21.0815 51.3034 21.0482C51.3856 21.0149 51.4771 21.0046 51.566 21.0187C51.6548 21.0328 51.7369 21.0705 51.8015 21.1271C51.8661 21.1836 51.9102 21.2563 51.9281 21.3356C52.1042 22.1282 51.8855 22.7693 51.2722 23.2591C51.146 23.3591 51.0007 23.3947 50.8363 23.3657C49.9295 23.2025 48.578 23.0879 46.7819 23.0221C45.7518 22.9826 42.2917 21.6516 42.503 20.285C42.5132 20.2212 42.501 20.1561 42.4682 20.0987C42.4354 20.0413 42.3835 19.9944 42.3198 19.9645C42.2561 19.9346 42.1836 19.9232 42.1124 19.9318C42.0411 19.9404 41.9746 19.9686 41.9219 20.0125C39.5007 22.0228 37.2864 23.575 33.8483 24.2504C31.7823 24.6559 29.7088 25.0324 27.6281 25.38C24.278 25.9408 24.7711 30.1866 21.7776 31.5374C20.2412 32.2325 20.4349 33.6346 20.0475 34.8827C19.7482 35.8464 18.9778 36.3164 18.181 36.9365C18.1279 36.9782 18.0902 37.0334 18.0729 37.0947C18.0556 37.1561 18.0595 37.2207 18.0842 37.2801L18.2514 37.6948C18.3101 37.8422 18.2529 37.916 18.0798 37.916H15.9623C15.9242 37.916 15.8867 37.9079 15.8529 37.8922C15.8191 37.8765 15.7899 37.8538 15.7679 37.826C15.7459 37.7981 15.7317 37.7659 15.7265 37.7321C15.7212 37.6982 15.7251 37.6638 15.7378 37.6316C15.8053 37.4499 15.9183 37.2932 16.0768 37.1616C16.2059 37.0563 16.2998 36.9312 16.3585 36.7864C16.8985 35.4225 17.3152 34.0269 17.6087 32.5998C17.6586 32.3655 17.5999 32.3405 17.4326 32.5248C16.4466 33.6307 15.8787 34.4048 15.6233 35.9372C15.4766 36.8404 15.0966 37.6671 14.4832 38.4175C14.4557 38.4507 14.4367 38.4888 14.4276 38.5291C14.4184 38.5694 14.4194 38.6109 14.4304 38.6506L14.5844 39.2075C14.6255 39.3576 14.5595 39.4313 14.3863 39.4286L12.172 39.4089C12.1094 39.4086 12.0483 39.3915 11.9966 39.3596C11.945 39.3278 11.9052 39.2828 11.8824 39.2304C11.8596 39.1781 11.8549 39.1208 11.8689 39.0659C11.8828 39.0111 11.9148 38.9614 11.9607 38.9231C12.511 38.4571 12.7707 38.0265 12.96 37.3275C13.5983 34.9538 13.9417 32.0074 15.5617 30.001C16.9132 28.3303 17.4194 27.5365 17.8024 25.7789C17.8376 25.6077 17.7672 25.559 17.5911 25.6328C17.283 25.7631 16.966 26.0554 16.8868 26.3792C16.5786 27.6273 15.9242 28.6595 14.9234 29.4757C14.8383 29.5442 14.7679 29.5297 14.7121 29.4323C14.6651 29.348 14.6695 29.2664 14.7253 29.1874C14.831 29.0294 14.8764 28.8569 14.8618 28.67C14.8442 28.4646 14.7547 28.4356 14.5932 28.5831C12.7854 30.2209 10.5755 31.1477 7.96356 31.3636C7.94247 31.3658 7.92119 31.3614 7.90327 31.3512C7.88536 31.341 7.87192 31.3255 7.86521 31.3074C7.8585 31.2894 7.85892 31.2698 7.86641 31.252C7.8739 31.2341 7.88799 31.2192 7.90633 31.2096L9.47351 30.3367C9.50267 30.3176 9.52345 30.29 9.5322 30.2586C9.54096 30.2271 9.53714 30.194 9.52142 30.1648C9.5057 30.1357 9.47907 30.1124 9.44618 30.099C9.41329 30.0857 9.37622 30.0832 9.34144 30.0918C7.80508 30.5737 6.36557 31.0318 4.73677 30.5539C3.76536 30.2722 2.78661 30.0234 1.80052 29.8075C1.63617 29.7706 1.61709 29.7021 1.74329 29.6021C2.55329 28.9596 3.48949 28.7345 4.55188 28.9267C4.59234 28.9334 4.63414 28.9278 4.67067 28.9108C4.7072 28.8938 4.73636 28.8664 4.75354 28.8329C4.77072 28.7993 4.77493 28.7616 4.76552 28.7256C4.7561 28.6897 4.73359 28.6576 4.70155 28.6344L4.15128 28.2395C4.1309 28.2262 4.11646 28.2073 4.11029 28.1856C4.10413 28.164 4.10661 28.141 4.11733 28.1204C4.12805 28.0998 4.14638 28.0828 4.16933 28.0721C4.19228 28.0615 4.2185 28.0578 4.24373 28.0618L7.629 28.6423C7.64895 28.6449 7.66929 28.6418 7.68719 28.6335C7.70509 28.6252 7.71966 28.6121 7.72887 28.596C7.73807 28.5799 7.74146 28.5617 7.73855 28.5438C7.73564 28.5259 7.72658 28.5093 7.71264 28.4962L7.45731 28.2671C7.27242 28.1012 7.31057 28.0275 7.57177 28.046C9.27394 28.1776 10.6753 27.6536 11.7758 26.474C11.9343 26.3002 11.8903 26.2344 11.6438 26.2765L10.464 26.4701C10.282 26.5017 10.26 26.4609 10.398 26.3476C13.1214 24.1596 16.2279 22.5811 19.7174 21.6121C19.7877 21.5926 19.8512 21.5577 19.902 21.5107C19.9528 21.4637 19.9892 21.4062 20.0079 21.3435C20.4481 19.9454 21.2317 19.0238 22.3587 18.5788C27.3111 16.6277 30.221 15.4626 32.8358 13.2785C34.5703 11.829 36.4808 10.7981 38.4706 9.7594C38.6526 9.66461 38.6497 9.57772 38.4618 9.49873L38.2593 9.41184C38.0627 9.32758 38.0598 9.23805 38.2505 9.14326L39.9145 8.32175C40.1435 8.20853 40.1435 8.09663 39.9145 7.98604L39.558 7.81621C39.3525 7.71615 39.3569 7.62531 39.5712 7.54368C40.5191 7.18032 41.5052 6.94993 42.5294 6.85251C42.5688 6.84887 42.6057 6.83374 42.6345 6.80945C42.6633 6.78516 42.6825 6.75305 42.689 6.71805C42.6955 6.68305 42.689 6.64711 42.6705 6.61574C42.652 6.58438 42.6226 6.55933 42.5867 6.54444L42.1553 6.35486C42.1202 6.33909 42.091 6.31453 42.0713 6.28418C42.0515 6.25382 42.0419 6.21896 42.0438 6.18384C42.0457 6.14872 42.0589 6.11483 42.0818 6.0863C42.1047 6.05777 42.1363 6.03581 42.1729 6.0231C43.8163 5.47015 45.5229 5.38458 47.2926 5.76637C47.7152 5.8559 47.7974 6.06391 47.5391 6.39041C47.4745 6.47203 47.4819 6.54707 47.5611 6.61553C47.6756 6.71296 47.768 6.70242 47.8385 6.58394C48.3931 5.67553 48.8011 5.01727 49.0623 4.60915C49.0846 4.57406 49.1188 4.54653 49.16 4.53052C49.2011 4.51451 49.247 4.51086 49.2912 4.52009C49.3353 4.52933 49.3752 4.55097 49.4053 4.58189C49.4354 4.6128 49.454 4.6514 49.4585 4.69209L49.5553 5.93621C49.5612 6.03626 49.6081 6.05469 49.6962 5.9915C50.4827 5.41749 51.1944 5.4978 51.8312 6.23242C52.5532 7.06184 53.6141 6.56024 54.4769 6.76957C54.5558 6.78885 54.6271 6.82766 54.6826 6.88156C54.738 6.93546 54.7755 7.00227 54.7906 7.07437C54.8058 7.14646 54.798 7.22093 54.7682 7.28925C54.7385 7.35758 54.6879 7.417 54.6222 7.46074C52.9464 8.59032 51.3103 9.68436 49.7138 10.7428C49.0799 11.1654 48.9258 11.6552 48.3711 12.1686C47.6712 12.8085 46.8964 12.6228 46.9888 13.8591C46.9908 13.8874 46.9849 13.9157 46.9716 13.9414C46.9583 13.9671 46.938 13.9894 46.9127 14.0063C46.8873 14.0232 46.8576 14.0341 46.8263 14.038C46.795 14.042 46.7631 14.0388 46.7335 14.0289L46.3197 13.8867C46.173 13.8367 46.0424 13.8604 45.9279 13.9578C45.5523 14.2711 45.4745 14.6398 45.6946 15.0637C45.7533 15.1795 45.7401 15.2888 45.655 15.3915L44.9462 16.2446C44.9328 16.2614 44.9259 16.2818 44.9266 16.3024C44.9273 16.3231 44.9355 16.343 44.9499 16.3592C44.9644 16.3753 44.9843 16.3867 45.0067 16.3917C45.0291 16.3967 45.0527 16.395 45.0739 16.3868C46.644 15.797 48.2772 15.5311 49.9735 15.589C51.0652 15.6285 51.8356 15.0755 52.923 15.2533C53.8592 15.4086 54.7807 15.4323 55.6875 15.3244C55.7318 15.3191 55.7767 15.3226 55.8192 15.3347C55.8618 15.3468 55.9008 15.3671 55.9336 15.3943C55.9664 15.4214 55.9921 15.4547 56.0089 15.4918C56.0257 15.5288 56.0332 15.5688 56.0309 15.6087C55.981 16.6383 55.689 17.6085 55.1549 18.5196C55.1243 18.5719 55.0786 18.6159 55.0225 18.6468C54.9664 18.6778 54.902 18.6946 54.8361 18.6954C54.7703 18.6962 54.7054 18.681 54.6484 18.6514C54.5913 18.6219 54.5443 18.5791 54.5122 18.5275C53.6009 17.0582 52.0866 16.9318 50.603 17.9034C48.3403 19.3845 46.4254 20.4786 43.4759 20.1428C43.2851 20.1218 43.1032 20.131 42.93 20.1705C42.7187 20.2205 42.7202 20.2653 42.9344 20.3048ZM50.6999 6.78931C50.8554 6.84987 51.0139 6.84066 51.1753 6.76167C51.3308 6.68268 51.3396 6.59315 51.2017 6.4931C51.0227 6.36408 50.8305 6.33906 50.625 6.41805C50.5781 6.43634 50.5334 6.45923 50.494 6.48517C50.4547 6.5111 50.4215 6.53947 50.3969 6.56833C50.3722 6.5972 50.3566 6.62588 50.3512 6.65243C50.3457 6.67898 50.3506 6.70277 50.3653 6.72217C50.377 6.7406 50.4137 6.7485 50.4754 6.74587C50.5546 6.74587 50.6294 6.76035 50.6999 6.78931ZM54.4637 15.901C53.8973 15.7456 53.3617 15.822 52.8569 16.1301C52.8023 16.163 52.7633 16.2129 52.7476 16.2702C52.7319 16.3275 52.7406 16.388 52.772 16.4399C52.8034 16.4918 52.8552 16.5313 52.9173 16.5507C52.9794 16.5701 53.0474 16.568 53.1079 16.5448L54.4725 16.0471C54.6251 15.9918 54.6222 15.9431 54.4637 15.901Z" fill="#3C4242"/>
<path id="Vector_2" d="M46.3505 27.1494C46.4092 27.2021 46.4767 27.2126 46.553 27.181C49.6462 25.8987 52.6705 26.0185 55.6258 27.5404C55.7726 27.6168 55.9017 27.5983 56.0132 27.4851C56.6648 26.819 57.5085 26.4767 58.5445 26.4582C61.4279 26.4069 63.563 26.2607 63.6026 29.5547C63.6143 30.8554 63.6158 32.1588 63.607 33.4648C63.607 33.6017 63.6833 33.6702 63.8359 33.6702H65.2402C65.3899 33.6702 65.4662 33.603 65.4691 33.4687C65.5087 31.5058 64.5182 26.5135 67.9299 26.4819C69.9769 26.4622 75.2199 26.0238 76.8839 26.8058C78.6668 27.6352 78.636 30.6487 77.6984 31.9007C77.6237 32.0013 77.5838 32.1195 77.5839 32.2404C77.6103 33.8242 77.804 35.4751 75.867 36.1939C75.2155 36.4388 74.4055 36.3045 73.6395 36.344C73.4693 36.3519 73.3886 36.4335 73.3974 36.5889C73.6704 41.7549 69.6468 39.9105 66.4464 40.1909C63.9372 40.4121 61.2914 40.2897 58.769 40.2818C57.5804 40.2765 56.6516 39.9302 55.9824 39.243C55.8826 39.143 55.7667 39.1258 55.6347 39.1917C51.9867 40.9953 48.4723 40.8281 45.0914 38.6901C44.9506 38.6006 44.842 38.6269 44.7657 38.7691C43.7312 40.7241 39.0296 40.8149 37.6518 39.5392C37.5491 39.4444 37.4405 39.4418 37.326 39.5313C35.5651 40.9453 30.6699 40.736 30.0844 38.4018C29.3302 35.4106 28.5804 32.4181 27.8349 29.4244C26.9897 26.0514 31.7573 26.1462 34.2181 26.7702C34.3677 26.8097 34.5174 26.8111 34.6671 26.7742C36.5043 26.3187 38.3414 26.3108 40.1786 26.7505C40.3283 26.7874 40.478 26.786 40.6276 26.7465C42.0055 26.3792 45.1751 26.087 46.3505 27.1494ZM40.1566 28.4054C40.0568 27.7971 39.756 27.4864 39.2542 27.4733C37.4845 27.4219 35.1998 27.0428 34.6759 28.3303C34.6654 28.3545 34.6473 28.3754 34.6239 28.3905C34.6004 28.4056 34.5726 28.4144 34.5437 28.4156C34.5149 28.4169 34.4862 28.4106 34.4612 28.3976C34.4363 28.3845 34.416 28.3653 34.403 28.3422C33.7338 27.0625 32.0566 27.4417 30.7668 27.4496C29.1292 27.4535 28.5921 28.1013 28.9355 29.5231C29.6545 32.5063 30.3779 35.4198 31.1057 38.2635C31.1808 38.5584 31.3655 38.8216 31.6296 39.0097C31.8937 39.1978 32.2213 39.2996 32.5585 39.2983L35.8601 39.2944C35.9432 39.2943 36.0251 39.2784 36.1002 39.2477C36.1754 39.217 36.2422 39.1723 36.2959 39.1166C36.921 38.4636 37.2482 37.6961 37.2776 36.814C37.2776 36.7693 37.3025 36.7469 37.3524 36.7469H37.4757C37.5901 36.7469 37.6488 36.7982 37.6518 36.9009C37.6782 37.7777 38.0113 38.5229 38.6511 39.1364C38.704 39.1874 38.7684 39.2282 38.8404 39.256C38.9123 39.2839 38.9902 39.2983 39.0693 39.2983C40.4339 39.3023 43.5111 39.8236 43.85 38.145C44.0056 37.3683 44.1597 36.7153 44.3123 36.186C44.3827 35.9543 44.4693 35.9491 44.572 36.1702C46.5398 40.3371 53.5348 40.5029 56.3566 37.13C56.3746 37.1091 56.4 37.094 56.4287 37.087C56.4574 37.0801 56.4877 37.0818 56.5147 37.0919C56.5416 37.1019 56.5637 37.1197 56.5774 37.1424C56.5911 37.1651 56.5955 37.1913 56.5899 37.2169C56.3126 38.9192 57.3867 39.322 59.0904 39.3102C61.4851 39.2944 63.8829 39.2917 66.2835 39.3023C66.3983 39.3022 66.5101 39.2719 66.6049 39.2154C66.9218 39.0232 67.2373 39.0139 67.5513 39.1877C67.6746 39.2562 67.8096 39.2917 67.9563 39.2944C69.3914 39.3102 72.3849 39.8473 72.3981 37.8172C72.4011 37.1089 72.4099 36.3888 72.4245 35.6568C72.4275 35.5304 72.4994 35.4659 72.6403 35.4633C75.7878 35.4277 77.1657 35.4317 76.3557 31.96C76.3293 31.8362 76.3674 31.7309 76.4701 31.644L76.9984 31.1938C77.0456 31.1539 77.0833 31.1056 77.109 31.0519C77.1348 30.9983 77.1481 30.9404 77.1481 30.8818V28.6344C77.1481 28.3202 77.0089 28.0188 76.7613 27.7966C76.5136 27.5744 76.1777 27.4496 75.8274 27.4496H67.9211C67.5378 27.4496 67.17 27.5859 66.8986 27.8288C66.6271 28.0716 66.474 28.4011 66.4728 28.745V34.4008C66.4728 34.5588 66.3848 34.6378 66.2087 34.6378L62.775 34.6339C62.5989 34.6339 62.5108 34.5562 62.5108 34.4008V28.7332C62.5109 28.3958 62.3624 28.0721 62.0978 27.8325C61.8331 27.5928 61.4737 27.4566 61.0977 27.4535C59.5834 27.4417 55.8636 26.8769 56.6956 29.5665C56.7071 29.6006 56.7044 29.6372 56.6879 29.6696C56.6715 29.7019 56.6425 29.7278 56.6063 29.7424C56.5701 29.7569 56.5293 29.7591 56.4914 29.7485C56.4535 29.738 56.4213 29.7154 56.4006 29.685C54.2216 26.711 49.2735 26.7031 46.2624 28.4804C46.1333 28.5568 46.0423 28.5291 45.9895 28.3975C45.4436 27.0072 42.7055 27.4022 41.4244 27.4851C41.3471 27.49 41.272 27.5098 41.2043 27.5432C41.1367 27.5766 41.0781 27.6229 41.0326 27.6786L40.3943 28.4607C40.3787 28.4798 40.357 28.4944 40.3321 28.5024C40.3072 28.5104 40.2801 28.5114 40.2545 28.5055C40.2289 28.4995 40.2059 28.4868 40.1884 28.4689C40.1709 28.4511 40.1599 28.4289 40.1566 28.4054Z" fill="#3C4242"/>
<path id="Vector_3" d="M56.1078 33.9318C56.1056 34.4967 55.9795 35.0556 55.7365 35.5767C55.4936 36.0977 55.1386 36.5708 54.6919 36.9688C54.2452 37.3668 53.7155 37.6819 53.133 37.8963C52.5506 38.1106 51.9267 38.2199 51.2972 38.2179L50.1262 38.2143C49.4967 38.2123 48.8737 38.0991 48.2929 37.8811C47.7121 37.6632 47.1849 37.3447 46.7413 36.9439C46.2976 36.5431 45.9464 36.0679 45.7075 35.5453C45.4686 35.0227 45.3468 34.463 45.349 33.8982L45.3534 32.7607C45.3556 32.1959 45.4818 31.637 45.7247 31.1159C45.9677 30.5948 46.3226 30.1218 46.7693 29.7238C47.216 29.3258 47.7458 29.0106 48.3282 28.7963C48.9107 28.582 49.5345 28.4727 50.1641 28.4746L51.335 28.4783C51.9646 28.4803 52.5876 28.5935 53.1683 28.8114C53.7491 29.0294 54.2764 29.3479 54.72 29.7487C55.1636 30.1495 55.5149 30.6247 55.7538 31.1473C55.9927 31.6699 56.1145 32.2296 56.1123 32.7944L56.1078 33.9318ZM52.1437 30.1392C51.4306 31.1582 50.1275 31.1187 49.2559 30.0879C49.2068 30.0288 49.1371 29.986 49.0575 29.966C48.978 29.946 48.893 29.95 48.8157 29.9773C48.3813 30.13 48.1436 30.5065 48.1025 31.1069C48.0644 31.6467 47.7694 32.5156 47.2177 33.7136C47.1619 33.8373 47.1619 33.9598 47.2177 34.0809C47.6843 35.1512 49.6037 36.3598 50.5149 37.2485C50.6264 37.3591 50.7409 37.3604 50.8583 37.2524C51.5626 36.6021 52.4812 35.8437 53.614 34.9775C54.8467 34.0335 53.9574 33.4213 53.7417 32.5327C53.5598 31.7875 53.3235 31.0213 53.033 30.234C53.0039 30.1543 52.9501 30.0837 52.8777 30.0307C52.8054 29.9776 52.7175 29.9441 52.6243 29.9342C52.5311 29.9243 52.4365 29.9383 52.3514 29.9746C52.2663 30.0109 52.1943 30.068 52.1437 30.1392Z" fill="#3C4242"/>
<path id="Vector_4" d="M37.2468 32.7578L35.6268 37.8567C35.5739 38.0279 35.4492 38.1135 35.2526 38.1135H32.7874C32.5526 38.1135 32.4102 38.0108 32.3604 37.8054L30.1549 28.8556C30.1483 28.829 30.1484 28.8015 30.1553 28.7749C30.1622 28.7484 30.1757 28.7236 30.1947 28.7023C30.2137 28.6811 30.2378 28.664 30.2652 28.6522C30.2926 28.6405 30.3226 28.6344 30.353 28.6345H32.8402C32.9231 28.6342 33.0034 28.6603 33.067 28.7079C33.1306 28.7556 33.1735 28.8219 33.188 28.8951L34.0596 33.0935C34.0705 33.1445 34.1004 33.1906 34.1443 33.2243C34.1882 33.258 34.2435 33.2774 34.3013 33.2792C34.3591 33.2811 34.4158 33.2653 34.4623 33.2344C34.5087 33.2035 34.5421 33.1594 34.557 33.1093L35.8645 28.8517C35.9085 28.7069 36.0142 28.6345 36.1814 28.6345H38.7303C38.9093 28.6345 39.0194 28.7121 39.0605 28.8675C39.442 30.2235 39.8294 31.5637 40.2226 32.8882C40.2813 33.0883 40.3987 33.2054 40.5748 33.2397C40.6046 33.2454 40.6354 33.2458 40.6653 33.2407C40.6953 33.2357 40.7238 33.2253 40.7492 33.2102C40.7747 33.1951 40.7965 33.1756 40.8134 33.1529C40.8303 33.1301 40.842 33.1046 40.8477 33.0777L41.7238 28.8635C41.7372 28.799 41.7753 28.7408 41.8316 28.699C41.8879 28.6571 41.9588 28.6343 42.0319 28.6345H44.4795C44.6908 28.6345 44.773 28.7279 44.7261 28.9149L42.5162 37.9278C42.4839 38.0516 42.3973 38.1135 42.2564 38.1135H39.5975C39.4302 38.1135 39.3231 38.041 39.2762 37.8962L37.6782 32.7618C37.6652 32.7197 37.6372 32.6825 37.5986 32.6559C37.56 32.6293 37.5128 32.6146 37.4641 32.6142C37.4154 32.6138 37.3679 32.6275 37.3287 32.6534C37.2895 32.6793 37.2607 32.716 37.2468 32.7578Z" fill="#3C4242"/>
<path id="Vector_5" d="M61.4412 35.8424H66.0018C66.0684 35.8424 66.1322 35.8662 66.1792 35.9084C66.2263 35.9506 66.2527 36.0079 66.2527 36.0676V37.8883C66.2527 37.948 66.2263 38.0053 66.1792 38.0475C66.1322 38.0897 66.0684 38.1135 66.0018 38.1135H58.2496C58.183 38.1135 58.1192 38.0897 58.0721 38.0475C58.0251 38.0053 57.9987 37.948 57.9987 37.8883V28.8596C57.9987 28.7999 58.0251 28.7426 58.0721 28.7004C58.1192 28.6582 58.183 28.6345 58.2496 28.6345H60.9393C61.0059 28.6345 61.0697 28.6582 61.1167 28.7004C61.1638 28.7426 61.1902 28.7999 61.1902 28.8596V35.6173C61.1902 35.677 61.2167 35.7343 61.2637 35.7765C61.3108 35.8187 61.3746 35.8424 61.4412 35.8424Z" fill="#3C4242"/>
<path id="Vector_6" d="M71.2976 32.2878H74.925C74.9892 32.2878 75.0508 32.3107 75.0962 32.3514C75.1416 32.3922 75.1671 32.4474 75.1671 32.505V33.998C75.1671 34.0549 75.1422 34.1096 75.0977 34.1502C75.0533 34.1908 74.9928 34.2142 74.9294 34.2152L71.3328 34.2784C71.2693 34.2794 71.2089 34.3028 71.1644 34.3434C71.12 34.384 71.0951 34.4387 71.0951 34.4956V37.8962C71.0951 37.9538 71.0696 38.0091 71.0242 38.0498C70.9788 38.0906 70.9172 38.1135 70.853 38.1135H68.1456C68.0814 38.1135 68.0198 38.0906 67.9744 38.0498C67.929 38.0091 67.9035 37.9538 67.9035 37.8962V28.8517C67.9035 28.7941 67.929 28.7388 67.9744 28.6981C68.0198 28.6573 68.0814 28.6345 68.1456 28.6345H75.5853C75.6495 28.6345 75.7111 28.6573 75.7565 28.6981C75.8019 28.7388 75.8274 28.7941 75.8274 28.8517V30.392C75.8274 30.4496 75.8019 30.5049 75.7565 30.5456C75.7111 30.5864 75.6495 30.6093 75.5853 30.6093H71.3592C71.2965 30.6092 71.2362 30.631 71.191 30.6701C71.1459 30.7091 71.1194 30.7623 71.1171 30.8186L71.0555 32.0627C71.0543 32.0919 71.0597 32.121 71.0713 32.1483C71.0829 32.1755 71.1006 32.2004 71.1232 32.2214C71.1458 32.2424 71.1729 32.2592 71.2028 32.2706C71.2328 32.282 71.265 32.2878 71.2976 32.2878Z" fill="#3C4242"/>
<path id="Vector_7" d="M49.3924 31.253C49.2838 31.0555 49.096 30.9726 48.8289 31.0042C48.6264 31.0305 48.5604 30.9581 48.6308 30.787L48.7365 30.5342C48.8157 30.3367 48.936 30.3143 49.0975 30.4671C50.1452 31.4571 51.1929 31.486 52.2406 30.5539C52.3668 30.4434 52.4593 30.4618 52.5179 30.6092L53.6141 33.3147C53.7112 33.5518 53.7288 33.8093 53.6646 34.0556C53.6005 34.3019 53.4574 34.5262 53.2531 34.701L50.9112 36.6876C50.8743 36.7195 50.8307 36.7444 50.783 36.7611C50.7353 36.7777 50.6844 36.7858 50.6333 36.7847C50.5821 36.7835 50.5317 36.7734 50.4849 36.7547C50.4382 36.736 50.396 36.7092 50.3609 36.6758L47.7372 34.1955C47.5993 34.0664 47.5626 33.9177 47.6271 33.7492L48.512 31.3755C48.5941 31.1595 48.7057 31.1464 48.8465 31.336C48.9375 31.4597 49.0696 31.5124 49.2427 31.4939C49.4188 31.4755 49.4687 31.3952 49.3924 31.253ZM52.1834 31.0358L51.9853 31.2135C51.9624 31.234 51.9461 31.2596 51.9381 31.2877C51.93 31.3158 51.9305 31.3453 51.9395 31.3731C51.9485 31.401 51.9657 31.4261 51.9892 31.446C52.0128 31.4659 52.0418 31.4797 52.0733 31.486C52.2582 31.5229 52.3859 31.4834 52.4563 31.3676C52.5297 31.2517 52.5018 31.1411 52.3727 31.0358C52.3081 30.9805 52.245 30.9805 52.1834 31.0358ZM51.6991 33.6149L51.7388 32.4813C51.7417 32.3576 51.6742 32.2931 51.5363 32.2878C51.4893 32.2878 51.4409 32.2878 51.391 32.2878C51.2472 32.2904 51.1753 32.3576 51.1753 32.4892V33.6544C51.1753 33.8071 51.1019 33.9229 50.9552 34.0019L50.8495 34.0572C50.7609 34.1027 50.6581 34.1208 50.5568 34.1089C50.4556 34.0969 50.3615 34.0554 50.2891 33.9909C50.2166 33.9263 50.1697 33.8422 50.1557 33.7515C50.1416 33.6607 50.1611 33.5683 50.2112 33.4885C50.4548 33.1146 50.4592 32.7446 50.2244 32.3787C50.204 32.3464 50.1759 32.3185 50.1424 32.2969C50.1088 32.2754 50.0705 32.2607 50.0301 32.2539C49.9898 32.2471 49.9484 32.2484 49.909 32.2577C49.8695 32.267 49.8329 32.284 49.8018 32.3076C49.3176 32.6762 49.2912 33.0382 49.7226 33.3937C49.7611 33.4215 49.7858 33.4618 49.7911 33.5059C49.7965 33.5499 49.7821 33.5941 49.7512 33.6287C49.7202 33.6633 49.6753 33.6854 49.6261 33.6902C49.577 33.695 49.5278 33.6821 49.4892 33.6544C49.1517 33.4437 48.9067 33.1646 48.7541 32.8171C48.6807 32.6459 48.6147 32.6485 48.556 32.825C48.3139 33.5951 48.8641 34.2429 49.1723 34.938C49.231 35.067 49.3293 35.1618 49.4672 35.2224C49.9632 35.4356 50.2993 35.7713 50.4753 36.2295C50.4922 36.2711 50.5228 36.307 50.563 36.3326C50.6033 36.3581 50.6512 36.372 50.7005 36.3725C50.7498 36.3729 50.7981 36.3598 50.8389 36.335C50.8797 36.3101 50.911 36.2747 50.9288 36.2334C51.1313 35.7595 51.5025 35.4211 52.0425 35.2184C52.1863 35.1631 52.2832 35.0696 52.3331 34.938C52.5708 34.3179 53.4336 33.2239 52.4827 32.7697C52.336 32.6986 52.2685 32.7381 52.2802 32.8881C52.3096 33.2094 52.1981 33.4832 51.9457 33.7097C51.7725 33.865 51.6903 33.8334 51.6991 33.6149Z" fill="#3C4242"/>
<path id="Vector_8" d="M51.5274 34.8669C51.2985 35.1644 50.9845 35.2908 50.5854 35.246C50.4269 35.2276 50.289 35.171 50.1716 35.0762L49.749 34.7365C49.6609 34.6628 49.6712 34.6036 49.7798 34.5588C50.2787 34.3482 50.7688 34.3429 51.2501 34.543C51.3499 34.5851 51.4379 34.5707 51.5142 34.4996L51.6419 34.385C51.7798 34.2639 51.8444 34.3561 51.8356 34.6615C51.8356 34.7194 51.8033 34.751 51.7387 34.7563C51.6507 34.7642 51.5803 34.801 51.5274 34.8669Z" fill="#3C4242"/>
</g>
</svg>
